<svg width="192" height="192" viewBox="0 0 192 192" fill="none" xmlns="http://www.w3.org/2000/svg">
  <defs>
    <linearGradient id="bg192" x1="0" y1="0" x2="192" y2="192" gradientUnits="userSpaceOnUse">
      <stop offset="0%" stop-color="#1e1b4b"/>
      <stop offset="100%" stop-color="#0f0c29"/>
    </linearGradient>
    <linearGradient id="accent192" x1="0" y1="0" x2="192" y2="192" gradientUnits="userSpaceOnUse">
      <stop offset="0%" stop-color="#6366f1"/>
      <stop offset="100%" stop-color="#8b5cf6"/>
    </linearGradient>
    <linearGradient id="shine192" x1="0" y1="0" x2="0" y2="1">
      <stop offset="0%" stop-color="#ffffff" stop-opacity="0.12"/>
      <stop offset="100%" stop-color="#ffffff" stop-opacity="0"/>
    </linearGradient>
  </defs>
  <rect width="192" height="192" rx="42" fill="url(#bg192)"/>
  <rect width="192" height="96" rx="42" fill="url(#shine192)"/>
  <!-- Fork -->
  <rect x="68" y="44" width="9" height="46" rx="4.5" fill="white" opacity="0.95"/>
  <rect x="82" y="44" width="9" height="46" rx="4.5" fill="white" opacity="0.95"/>
  <rect x="96" y="44" width="9" height="46" rx="4.5" fill="white" opacity="0.95"/>
  <rect x="69" y="88" width="35" height="7" rx="3.5" fill="white" opacity="0.95"/>
  <rect x="78" y="95" width="17" height="52" rx="8.5" fill="white" opacity="0.95"/>
  <!-- Knife -->
  <rect x="118" y="95" width="16" height="52" rx="8" fill="white" opacity="0.95"/>
  <path d="M118 44 Q134 44 134 72 L118 72 Z" fill="white" opacity="0.95"/>
  <!-- Accent dot -->
  <circle cx="148" cy="50" r="11" fill="url(#accent192)"/>
  <circle cx="148" cy="50" r="5" fill="white" opacity="0.7"/>
</svg>
