<svg width="1200" height="630" viewBox="0 0 1200 630" fill="none" xmlns="http://www.w3.org/2000/svg">
  <defs>
    <linearGradient id="ogBg" x1="0" y1="0" x2="1200" y2="630" gradientUnits="userSpaceOnUse">
      <stop offset="0%" stop-color="#080c1a"/>
      <stop offset="60%" stop-color="#0d1230"/>
      <stop offset="100%" stop-color="#080c1a"/>
    </linearGradient>
    <linearGradient id="ogAccent" x1="0" y1="0" x2="1" y2="1">
      <stop offset="0%" stop-color="#6366f1"/>
      <stop offset="100%" stop-color="#8b5cf6"/>
    </linearGradient>
    <radialGradient id="ogGlow1" cx="30%" cy="40%" r="50%">
      <stop offset="0%" stop-color="#6366f1" stop-opacity="0.2"/>
      <stop offset="100%" stop-color="#6366f1" stop-opacity="0"/>
    </radialGradient>
    <radialGradient id="ogGlow2" cx="80%" cy="70%" r="40%">
      <stop offset="0%" stop-color="#8b5cf6" stop-opacity="0.15"/>
      <stop offset="100%" stop-color="#8b5cf6" stop-opacity="0"/>
    </radialGradient>
  </defs>

  <!-- Background -->
  <rect width="1200" height="630" fill="url(#ogBg)"/>
  <rect width="1200" height="630" fill="url(#ogGlow1)"/>
  <rect width="1200" height="630" fill="url(#ogGlow2)"/>

  <!-- Subtle grid -->
  <g opacity="0.04" stroke="white" stroke-width="1">
    <line x1="0" y1="105" x2="1200" y2="105"/>
    <line x1="0" y1="210" x2="1200" y2="210"/>
    <line x1="0" y1="315" x2="1200" y2="315"/>
    <line x1="0" y1="420" x2="1200" y2="420"/>
    <line x1="0" y1="525" x2="1200" y2="525"/>
    <line x1="150" y1="0" x2="150" y2="630"/>
    <line x1="300" y1="0" x2="300" y2="630"/>
    <line x1="450" y1="0" x2="450" y2="630"/>
    <line x1="600" y1="0" x2="600" y2="630"/>
    <line x1="750" y1="0" x2="750" y2="630"/>
    <line x1="900" y1="0" x2="900" y2="630"/>
    <line x1="1050" y1="0" x2="1050" y2="630"/>
  </g>

  <!-- Logo icon -->
  <rect x="80" y="80" width="72" height="72" rx="18" fill="url(#ogAccent)"/>
  <!-- Fork in logo -->
  <rect x="100" y="96" width="6" height="28" rx="3" fill="white" opacity="0.9"/>
  <rect x="110" y="96" width="6" height="28" rx="3" fill="white" opacity="0.9"/>
  <rect x="120" y="96" width="6" height="28" rx="3" fill="white" opacity="0.9"/>
  <rect x="101" y="122" width="24" height="5" rx="2.5" fill="white" opacity="0.9"/>
  <rect x="108" y="127" width="10" height="16" rx="5" fill="white" opacity="0.9"/>
  <!-- Knife in logo -->
  <rect x="134" y="127" width="10" height="16" rx="5" fill="white" opacity="0.9"/>
  <path d="M134 96 Q144 96 144 112 L134 112 Z" fill="white" opacity="0.9"/>

  <!-- Brand name -->
  <text x="172" y="122" font-family="system-ui, -apple-system, sans-serif" font-size="28" font-weight="700" fill="white" opacity="0.95">Restaurant QR</text>
  <text x="172" y="146" font-family="system-ui, -apple-system, sans-serif" font-size="14" font-weight="400" fill="white" opacity="0.4" letter-spacing="3">PROFESSIONAL TIZIM</text>

  <!-- Main headline -->
  <text x="80" y="290" font-family="system-ui, -apple-system, sans-serif" font-size="64" font-weight="800" fill="white" opacity="0.95">Restoraningizni</text>
  <text x="80" y="370" font-family="system-ui, -apple-system, sans-serif" font-size="64" font-weight="800" fill="url(#ogAccent)">raqamlashtiring</text>

  <!-- Description -->
  <text x="80" y="430" font-family="system-ui, -apple-system, sans-serif" font-size="22" font-weight="400" fill="white" opacity="0.45">QR kod orqali buyurtma · Real-time boshqaruv · Professional analitika</text>

  <!-- Stats -->
  <rect x="80" y="490" width="160" height="64" rx="14" fill="white" opacity="0.05" stroke="white" stroke-opacity="0.08" stroke-width="1"/>
  <text x="160" y="520" text-anchor="middle" font-family="system-ui, -apple-system, sans-serif" font-size="22" font-weight="800" fill="#818cf8">99.9%</text>
  <text x="160" y="542" text-anchor="middle" font-family="system-ui, -apple-system, sans-serif" font-size="11" font-weight="500" fill="white" opacity="0.35" letter-spacing="2">UPTIME</text>

  <rect x="260" y="490" width="160" height="64" rx="14" fill="white" opacity="0.05" stroke="white" stroke-opacity="0.08" stroke-width="1"/>
  <text x="340" y="520" text-anchor="middle" font-family="system-ui, -apple-system, sans-serif" font-size="22" font-weight="800" fill="#34d399">&lt;1s</text>
  <text x="340" y="542" text-anchor="middle" font-family="system-ui, -apple-system, sans-serif" font-size="11" font-weight="500" fill="white" opacity="0.35" letter-spacing="2">JAVOB VAQTI</text>

  <rect x="440" y="490" width="160" height="64" rx="14" fill="white" opacity="0.05" stroke="white" stroke-opacity="0.08" stroke-width="1"/>
  <text x="520" y="520" text-anchor="middle" font-family="system-ui, -apple-system, sans-serif" font-size="22" font-weight="800" fill="#a78bfa">3</text>
  <text x="520" y="542" text-anchor="middle" font-family="system-ui, -apple-system, sans-serif" font-size="11" font-weight="500" fill="white" opacity="0.35" letter-spacing="2">TIL</text>

  <!-- Right side decorative QR mockup -->
  <rect x="820" y="160" width="300" height="300" rx="24" fill="white" opacity="0.03" stroke="white" stroke-opacity="0.06" stroke-width="1"/>
  <!-- QR pattern simplified -->
  <rect x="850" y="190" width="60" height="60" rx="8" fill="white" opacity="0.08"/>
  <rect x="858" y="198" width="44" height="44" rx="5" fill="#080c1a" opacity="0.8"/>
  <rect x="866" y="206" width="28" height="28" rx="3" fill="white" opacity="0.15"/>

  <rect x="1030" y="190" width="60" height="60" rx="8" fill="white" opacity="0.08"/>
  <rect x="1038" y="198" width="44" height="44" rx="5" fill="#080c1a" opacity="0.8"/>
  <rect x="1046" y="206" width="28" height="28" rx="3" fill="white" opacity="0.15"/>

  <rect x="850" y="370" width="60" height="60" rx="8" fill="white" opacity="0.08"/>
  <rect x="858" y="378" width="44" height="44" rx="5" fill="#080c1a" opacity="0.8"/>
  <rect x="866" y="386" width="28" height="28" rx="3" fill="white" opacity="0.15"/>

  <!-- QR data dots -->
  <rect x="930" y="190" width="10" height="10" rx="2" fill="white" opacity="0.12"/>
  <rect x="948" y="190" width="10" height="10" rx="2" fill="white" opacity="0.08"/>
  <rect x="966" y="190" width="10" height="10" rx="2" fill="white" opacity="0.12"/>
  <rect x="984" y="190" width="10" height="10" rx="2" fill="white" opacity="0.06"/>
  <rect x="930" y="208" width="10" height="10" rx="2" fill="white" opacity="0.06"/>
  <rect x="966" y="208" width="10" height="10" rx="2" fill="white" opacity="0.1"/>
  <rect x="930" y="226" width="10" height="10" rx="2" fill="white" opacity="0.12"/>
  <rect x="948" y="226" width="10" height="10" rx="2" fill="white" opacity="0.08"/>
  <rect x="984" y="226" width="10" height="10" rx="2" fill="white" opacity="0.1"/>

  <!-- Center QR square -->
  <rect x="940" y="280" width="60" height="60" rx="8" fill="url(#ogAccent)" opacity="0.3"/>
  <rect x="950" y="290" width="40" height="40" rx="5" fill="#080c1a" opacity="0.6"/>
  <rect x="960" y="300" width="20" height="20" rx="3" fill="white" opacity="0.2"/>

  <!-- URL badge -->
  <rect x="820" y="490" width="300" height="40" rx="10" fill="white" opacity="0.05" stroke="white" stroke-opacity="0.08" stroke-width="1"/>
  <text x="970" y="515" text-anchor="middle" font-family="system-ui, -apple-system, sans-serif" font-size="14" font-weight="500" fill="white" opacity="0.4">restaurantqr.uz</text>
</svg>
